<svg width="1595" height="632" viewBox="0 0 1595 632" preserveAspectRatio="none" xmlns="http://www.w3.org/2000/svg" xmlns:xlink="http://www.w3.org/1999/xlink" overflow="hidden"><defs></defs><g><g><text font-family="Arial" font-weight="700" font-size="14" x="655.997" y="23.5352">Join Activity - Collaboration Diagram</text></g><g id="ent0002"><rect x="427.95" y="44.4883" rx="2.5" ry="2.5" width="109.409" height="36.4883" stroke="#181818" stroke-width="0.5" fill="#F1F1F1"/><text font-family="Arial" font-size="14" x="434.95" y="60.0234">Student Guest</text><line x1="428.95" y1="64.9766" x2="536.359" y2="64.9766" stroke="#181818" stroke-width="0.5"/></g><g id="ent0003"><rect x="405.07" y="157.978" rx="2.5" ry="2.5" width="155.169" height="36.4883" stroke="#181818" stroke-width="0.5" fill="#F1F1F1"/><text font-family="Arial" font-size="14" x="412.07" y="173.513">ActivityDetailsScreen</text><line x1="406.07" y1="178.467" x2="559.239" y2="178.467" stroke="#181818" stroke-width="0.5"/></g><g id="ent0004"><rect x="403.75" y="271.458" rx="2.5" ry="2.5" width="157.808" height="36.4883" stroke="#181818" stroke-width="0.5" fill="#F1F1F1"/><text font-family="Arial" font-size="14" x="410.75" y="286.993">JoinActivityController</text><line x1="404.75" y1="291.947" x2="560.558" y2="291.947" stroke="#181818" stroke-width="0.5"/></g><g id="ent0005"><rect x="65.2" y="384.948" rx="2.5" ry="2.5" width="182.902" height="36.4883" stroke="#181818" stroke-width="0.5" fill="#F1F1F1"/><text font-family="Arial" font-size="14" x="72.2" y="400.483">BlockEnforcementService</text><line x1="66.2" y1="405.437" x2="247.102" y2="405.437" stroke="#181818" stroke-width="0.5"/></g><g id="ent0006"><rect x="622.58" y="384.948" rx="2.5" ry="2.5" width="146.145" height="36.4883" stroke="#181818" stroke-width="0.5" fill="#F1F1F1"/><text font-family="Arial" font-size="14" x="629.58" y="400.483">ParticipationService</text><line x1="623.58" y1="405.437" x2="767.726" y2="405.437" stroke="#181818" stroke-width="0.5"/></g><g id="ent0007"><rect x="7" y="559.438" rx="2.5" ry="2.5" width="145.305" height="67.1094" stroke="#181818" stroke-width="0.5" fill="#F1F1F1"/><text font-family="Arial" font-style="italic" font-size="12" x="43.1426" y="571.04">«Data Store»</text><text font-family="Arial" font-size="14" x="39.4604" y="589.106">DS-SM-001</text><text font-family="Arial" font-size="14" x="14" y="605.595">Block Relationships</text><line x1="8" y1="610.548" x2="151.305" y2="610.548" stroke="#181818" stroke-width="0.5"/></g><g id="ent0008"><rect x="370.38" y="559.438" rx="2.5" ry="2.5" width="92.5381" height="67.1094" stroke="#181818" stroke-width="0.5" fill="#F1F1F1"/><text font-family="Arial" font-style="italic" font-size="12" x="380.139" y="571.04">«Data Store»</text><text font-family="Arial" font-size="14" x="377.38" y="589.106">DS-HL-001</text><text font-family="Arial" font-size="14" x="385.836" y="605.595">Activities</text><line x1="371.38" y1="610.548" x2="461.918" y2="610.548" stroke="#181818" stroke-width="0.5"/></g><g id="ent0009"><rect x="898.48" y="559.438" rx="2.5" ry="2.5" width="160.337" height="67.1094" stroke="#181818" stroke-width="0.5" fill="#F1F1F1"/><text font-family="Arial" font-style="italic" font-size="12" x="942.139" y="571.04">«Data Store»</text><text font-family="Arial" font-size="14" x="939.379" y="589.106">DS-HL-002</text><text font-family="Arial" font-size="14" x="905.48" y="605.595">Activity Participations</text><line x1="899.48" y1="610.548" x2="1057.82" y2="610.548" stroke="#181818" stroke-width="0.5"/></g><g id="ent0010"><rect x="1299.55" y="574.748" rx="2.5" ry="2.5" width="184.208" height="36.4883" stroke="#181818" stroke-width="0.5" fill="#F1F1F1"/><text font-family="Arial" font-size="14" x="1306.55" y="590.283">Internal Event Dispatcher</text><line x1="1300.55" y1="595.237" x2="1482.76" y2="595.237" stroke="#181818" stroke-width="0.5"/></g><g id="lnk11"><path d="M427.87 79.9283C413.25 87.0283 399.17 97.0283 390.65 110.978 378.27 131.258 393.077 144.408 417.737 155.118" id="Student-to-UI" stroke="#181818" fill="none"/><path d="M423.24 157.508 416.578 150.254 418.654 155.516 413.392 157.592 423.24 157.508Z" stroke="#181818" fill="#181818"/><text font-family="Arial" font-size="13" x="391.65" y="124.547">1: click join(activityId)</text></g><g id="lnk22"><path d="M511.22 157.538C526.74 145.498 541.35 128.588 533.65 110.978 528.53 99.2483 523.544 92.9496 514.024 85.1196" id="UI-to-Student" stroke="#181818" fill="none"/><path d="M509.39 81.3083 513.8 90.1146 513.252 84.4844 518.882 83.936 509.39 81.3083Z" stroke="#181818" fill="#181818"/><text font-family="Arial" font-size="13" x="536.77" y="124.547">12: show success feedback</text></g><g id="lnk12"><path d="M404.62 187.628C382.98 194.508 361.83 205.838 348.65 224.458 329.2 251.948 358.56 266.721 397.75 275.961" id="UI-to-Controller" stroke="#181818" fill="none"/><path d="M403.59 277.338 395.748 271.38 398.723 276.191 393.912 279.166 403.59 277.338Z" stroke="#181818" fill="#181818"/><text font-family="Arial" font-size="13" x="349.65" y="238.027">2: requestJoin(activityId, studentId)</text></g><g id="lnk21"><path d="M542.07 270.998C566.72 260.288 587.04 244.748 574.65 224.458 566.7 211.438 559.214 204.596 545.644 197.606" id="Controller-to-UI" stroke="#181818" fill="none"/><path d="M540.31 194.858 546.479 202.536 544.755 197.148 550.143 195.424 540.31 194.858Z" stroke="#181818" fill="#181818"/><text font-family="Arial" font-size="13" x="579.39" y="238.027">11: return success outcome</text></g><g id="lnk13"><path d="M422.05 308.388C393.57 316.928 359.24 327.558 328.65 337.948 285.19 352.718 241.796 369.035 207.257 382.385" id="Controller-to-BlockSvc" stroke="#181818" fill="none"/><path d="M201.66 384.548 211.497 385.035 206.324 382.746 208.613 377.573 201.66 384.548Z" stroke="#181818" fill="#181818"/><text font-family="Arial" font-size="13" x="329.65" y="351.517">3: checkReciprocalBlock(studentId, hostId)</text></g><g id="lnk14"><path d="M108.86 421.888C96.14 429.038 83.93 438.688 76.65 451.438 57.9 484.298 61.6067 523.041 68.5167 553.121" id="BlockSvc-to-Blocks" stroke="#181818" fill="none"/><path d="M69.86 558.968 71.7435 549.301 68.7406 554.095 63.9465 551.092 69.86 558.968Z" stroke="#181818" fill="#181818"/><text font-family="Arial" font-size="13" x="77.65" y="495.507">4: read block relationships</text></g><g id="lnk15"><path d="M537.55 308.418C559.3 316.298 584.2 326.418 605.65 337.948 630.68 351.408 652.146 367.054 669.766 381.004" id="Controller-to-PartSvc" stroke="#181818" fill="none"/><path d="M674.47 384.728 669.897 376.006 670.55 381.625 664.931 382.278 674.47 384.728Z" stroke="#181818" fill="#181818"/><text font-family="Arial" font-size="13" x="632.63" y="351.517">5: executeJoinFlow(activityId, studentId)</text></g><g id="lnk16"><path d="M622.44 407.458C510.8 413.188 308.56 426.858 286.65 451.438 263.59 477.318 268.2 500.088 286.65 529.438 304.85 558.388 334.836 572.582 364.246 581.082" id="PartSvc-to-Activities" stroke="#181818" fill="none"/><path d="M370.01 582.748 362.474 576.407 365.207 581.36 360.253 584.092 370.01 582.748Z" stroke="#181818" fill="#181818"/><text font-family="Arial" font-size="13" x="291.966" y="480.507">6: transactionally read/re-check</text><text font-family="Arial" font-size="13" x="287.65" y="495.817">activity context(Status=open/full,</text><text font-family="Arial" font-size="13" x="328.5" y="511.128">limits, mode, hostId)</text></g><g id="lnk19"><path d="M622.31 413.468C594.14 420.158 563.34 431.658 540.65 451.438 511.88 476.528 529.03 500.058 504.65 529.438 493.16 543.288 482.871 552.174 468.301 562.084" id="PartSvc-to-Activities-1" stroke="#181818" fill="none"/><path d="M463.34 565.458 473.031 563.704 467.474 562.646 468.532 557.089 463.34 565.458Z" stroke="#181818" fill="#181818"/><text font-family="Arial" font-size="13" x="541.65" y="488.007">9: derive/update CurrentParticipantCount</text><text font-family="Arial" font-size="13" x="547.925" y="503.317">or CurrentRequestCount transactionally</text></g><g id="lnk17"><path d="M760.67 421.868C777.82 428.918 795.26 438.528 808.65 451.438 836.14 477.938 817.71 502.378 844.65 529.438 859.6 544.448 873.414 553.697 892.614 562.847" id="PartSvc-to-Participations" stroke="#181818" fill="none"/><path d="M898.03 565.428 891.626 557.945 893.516 563.277 888.185 565.167 898.03 565.428Z" stroke="#181818" fill="#181818"/><text font-family="Arial" font-size="13" x="845.65" y="488.007">7: check no duplicate active record</text><text font-family="Arial" font-size="13" x="860.957" y="503.317">(ActivityID, StudentAccountID)</text></g><g id="lnk18"><path d="M769.15 408.308C872.67 414.848 1051.07 429.228 1070.65 451.438 1093.58 477.438 1086.87 498.798 1070.65 529.438 1064.51 541.048 1059.86 547.189 1049.41 555.409" id="PartSvc-to-Participations-1" stroke="#181818" fill="none"/><path d="M1044.69 559.118 1054.24 556.698 1048.62 556.027 1049.29 550.41 1044.69 559.118Z" stroke="#181818" fill="#181818"/><text font-family="Arial" font-size="13" x="1093.13" y="480.507">8: create RecordType=participation,</text><text font-family="Arial" font-size="13" x="1139.04" y="495.817">Status=confirmed OR</text><text font-family="Arial" font-size="13" x="1086.44" y="511.128">RecordType=request, Status=pending</text></g><g id="lnk20"><path d="M769.16 405.288C927.65 408.258 1290.87 418.598 1335.65 451.438 1375.9 480.948 1386.63 538.11 1389.81 568.7" id="PartSvc-to-Events" stroke="#181818" fill="none"/><path d="M1390.43 574.668 1393.48 565.303 1389.91 569.695 1385.52 566.13 1390.43 574.668Z" stroke="#181818" fill="#181818"/><text font-family="Arial" font-size="13" x="1383.12" y="465.007">10: emit DirectJoinCompleted or</text><text font-family="Arial" font-size="13" x="1415.93" y="480.317">JoinRequestSubmitted</text><text font-family="Arial" font-size="13" x="1386.99" y="495.628">{eventId,eventType,occurredAt,</text><text font-family="Arial" font-size="13" x="1389.93" y="510.938">activityId,triggeringAccountId,</text><text font-family="Arial" font-size="13" x="1437.28" y="526.249">participationId}</text></g></g></svg>