<svg width="1966" height="1086" viewBox="0 0 1966 1086" preserveAspectRatio="none" xmlns="http://www.w3.org/2000/svg" xmlns:xlink="http://www.w3.org/1999/xlink" overflow="hidden"><defs></defs><g><text font-family="Arial" font-weight="700" font-size="14" x="749.149" y="28.5352">View Consent-Based Student Insights - Sequence Diagram v1.1</text><rect x="10" y="272.328" width="1949.4" height="724.674" stroke="#000000" stroke-width="1.5" fill="none"/><rect x="20" y="532.078" width="1929.4" height="457.924" stroke="#000000" stroke-width="1.5" fill="none"/><g id="part1-lifeline"><g><rect x="80.9155" y="121.465" width="8" height="958.469" fill-opacity="0"/><line x1="84" y1="121.465" x2="84" y2="1079.93" stroke="#181818" stroke-width="0.5" stroke-dasharray="5 5"/></g></g><g id="part2-lifeline"><g><rect x="386.981" y="121.465" width="8" height="958.469" fill-opacity="0"/><line x1="390.7" y1="121.465" x2="390.7" y2="1079.93" stroke="#181818" stroke-width="0.5" stroke-dasharray="5 5"/></g></g><g id="part3-lifeline"><g><rect x="661.638" y="121.465" width="8" height="958.469" fill-opacity="0"/><line x1="665.14" y1="121.465" x2="665.14" y2="1079.93" stroke="#181818" stroke-width="0.5" stroke-dasharray="5 5"/></g></g><g id="part4-lifeline"><g><rect x="945.614" y="121.465" width="8" height="958.469" fill-opacity="0"/><line x1="948.759" y1="121.465" x2="948.759" y2="1079.93" stroke="#181818" stroke-width="0.5" stroke-dasharray="5 5"/></g></g><g id="part5-lifeline"><g><rect x="1164.03" y="121.465" width="8" height="958.469" fill-opacity="0"/><line x1="1167.47" y1="121.465" x2="1167.47" y2="1079.93" stroke="#181818" stroke-width="0.5" stroke-dasharray="5 5"/></g></g><g id="part6-lifeline"><g><rect x="1347.47" y="121.465" width="8" height="958.469" fill-opacity="0"/><line x1="1350.6" y1="121.465" x2="1350.6" y2="1079.93" stroke="#181818" stroke-width="0.5" stroke-dasharray="5 5"/></g></g><g id="part7-lifeline"><g><rect x="1504.17" y="121.465" width="8" height="958.469" fill-opacity="0"/><line x1="1507.35" y1="121.465" x2="1507.35" y2="1079.93" stroke="#181818" stroke-width="0.5" stroke-dasharray="5 5"/></g></g><g id="part8-lifeline"><g><rect x="1625.76" y="121.465" width="8" height="958.469" fill-opacity="0"/><line x1="1628.99" y1="121.465" x2="1628.99" y2="1079.93" stroke="#181818" stroke-width="0.5" stroke-dasharray="5 5"/></g></g><g id="part9-lifeline"><g><rect x="1730.8" y="121.465" width="8" height="958.469" fill-opacity="0"/><line x1="1734.53" y1="121.465" x2="1734.53" y2="1079.93" stroke="#181818" stroke-width="0.5" stroke-dasharray="5 5"/></g></g><g id="part10-lifeline"><g><rect x="1859.24" y="121.465" width="8" height="958.469" fill-opacity="0"/><line x1="1863.07" y1="121.465" x2="1863.07" y2="1079.93" stroke="#181818" stroke-width="0.5" stroke-dasharray="5 5"/></g></g><g id="part1-head"><text font-family="Arial" font-size="14" x="30" y="118.512">Campus Admin</text><ellipse cx="84.9155" cy="53.4766" rx="8" ry="8" stroke="#181818" stroke-width="0.5" fill="#E2E2F0"/><path d="M84.9155 61.4766 84.9155 88.4766M71.9155 69.4766 97.9155 69.4766M84.9155 88.4766 71.9155 103.477M84.9155 88.4766 97.9155 103.477" stroke="#181818" stroke-width="0.5" fill="none"/></g><g id="part2-head"><text font-family="Arial" font-size="14" x="305.7" y="118.512">AdminInsightDashboard</text><path d="M370.481 76.9766 370.481 100.977M370.481 88.9766 387.481 88.9766" stroke="#181818" stroke-width="0.5" fill="none"/><ellipse cx="399.481" cy="88.9766" rx="12" ry="12" stroke="#181818" stroke-width="0.5" fill="#E2E2F0"/></g><g id="part3-head"><text font-family="Arial" font-size="14" x="583.14" y="118.512">AdminInsightController</text><ellipse cx="665.638" cy="88.9766" rx="12" ry="12" stroke="#181818" stroke-width="0.5" fill="#E2E2F0"/><path d="M661.638 76.9766 667.638 71.9766 665.638 76.9766 667.638 81.9766 661.638 76.9766Z" stroke="#181818" fill="#181818"/></g><g id="part4-head"><text font-family="Arial" font-size="14" x="826.759" y="118.512">CampusAdminAuthorizationService</text><ellipse cx="949.614" cy="88.9766" rx="12" ry="12" stroke="#181818" stroke-width="0.5" fill="#E2E2F0"/><path d="M945.614 76.9766 951.614 71.9766 949.614 76.9766 951.614 81.9766 945.614 76.9766Z" stroke="#181818" fill="#181818"/></g><g id="part5-head"><text font-family="Arial" font-size="14" x="1082.47" y="118.512">ConsentEligibilityService</text><ellipse cx="1168.03" cy="88.9766" rx="12" ry="12" stroke="#181818" stroke-width="0.5" fill="#E2E2F0"/><path d="M1164.03 76.9766 1170.03 71.9766 1168.03 76.9766 1170.03 81.9766 1164.03 76.9766Z" stroke="#181818" fill="#181818"/></g><g id="part6-head"><text font-family="Arial" font-size="14" x="1263.6" y="118.512">StudentInsightAssembler</text><ellipse cx="1351.47" cy="88.9766" rx="12" ry="12" stroke="#181818" stroke-width="0.5" fill="#E2E2F0"/><path d="M1347.47 76.9766 1353.47 71.9766 1351.47 76.9766 1353.47 81.9766 1347.47 76.9766Z" stroke="#181818" fill="#181818"/></g><g id="part7-head"><text font-family="Arial" font-size="14" x="1466.08" y="102.023">DS-AP-001</text><text font-family="Arial" font-size="14" x="1449.35" y="118.512">Student Account</text><path d="M1490.17 52.4883C1490.17 42.4883 1508.17 42.4883 1508.17 42.4883 1508.17 42.4883 1526.17 42.4883 1526.17 52.4883L1526.17 78.4883C1526.17 88.4883 1508.17 88.4883 1508.17 88.4883 1508.17 88.4883 1490.17 88.4883 1490.17 78.4883L1490.17 52.4883" stroke="#181818" stroke-width="0.5" fill="#E2E2F0"/><path d="M1490.17 52.4883C1490.17 62.4883 1508.17 62.4883 1508.17 62.4883 1508.17 62.4883 1526.17 62.4883 1526.17 52.4883" stroke="#181818" stroke-width="0.5" fill="none"/></g><g id="part8-head"><text font-family="Arial" font-size="14" x="1587.67" y="102.023">DS-AP-002</text><text font-family="Arial" font-size="14" x="1576.99" y="118.512">Student Profile</text><path d="M1611.76 52.4883C1611.76 42.4883 1629.76 42.4883 1629.76 42.4883 1629.76 42.4883 1647.76 42.4883 1647.76 52.4883L1647.76 78.4883C1647.76 88.4883 1629.76 88.4883 1629.76 88.4883 1629.76 88.4883 1611.76 88.4883 1611.76 78.4883L1611.76 52.4883" stroke="#181818" stroke-width="0.5" fill="#E2E2F0"/><path d="M1611.76 52.4883C1611.76 62.4883 1629.76 62.4883 1629.76 62.4883 1629.76 62.4883 1647.76 62.4883 1647.76 52.4883" stroke="#181818" stroke-width="0.5" fill="none"/></g><g id="part9-head"><text font-family="Arial" font-size="14" x="1692.53" y="102.023">DS-HL-001</text><text font-family="Arial" font-size="14" x="1700.99" y="118.512">Activities</text><path d="M1716.8 52.4883C1716.8 42.4883 1734.8 42.4883 1734.8 42.4883 1734.8 42.4883 1752.8 42.4883 1752.8 52.4883L1752.8 78.4883C1752.8 88.4883 1734.8 88.4883 1734.8 88.4883 1734.8 88.4883 1716.8 88.4883 1716.8 78.4883L1716.8 52.4883" stroke="#181818" stroke-width="0.5" fill="#E2E2F0"/><path d="M1716.8 52.4883C1716.8 62.4883 1734.8 62.4883 1734.8 62.4883 1734.8 62.4883 1752.8 62.4883 1752.8 52.4883" stroke="#181818" stroke-width="0.5" fill="none"/></g><g id="part10-head"><text font-family="Arial" font-size="14" x="1820.97" y="102.023">DS-HL-002</text><text font-family="Arial" font-size="14" x="1787.07" y="118.512">Activity Participations</text><path d="M1845.24 52.4883C1845.24 42.4883 1863.24 42.4883 1863.24 42.4883 1863.24 42.4883 1881.24 42.4883 1881.24 52.4883L1881.24 78.4883C1881.24 88.4883 1863.24 88.4883 1863.24 88.4883 1863.24 88.4883 1845.24 88.4883 1845.24 78.4883L1845.24 52.4883" stroke="#181818" stroke-width="0.5" fill="#E2E2F0"/><path d="M1845.24 52.4883C1845.24 62.4883 1863.24 62.4883 1863.24 62.4883 1863.24 62.4883 1881.24 62.4883 1881.24 52.4883" stroke="#181818" stroke-width="0.5" fill="none"/></g><g id="msg1"><path d="M378.981 148.775 388.981 152.775 378.981 156.775 382.981 152.775Z" stroke="#181818" fill="#181818"/><line x1="84.9155" y1="152.775" x2="384.981" y2="152.775" stroke="#181818"/><text font-family="Arial" font-weight="700" font-size="13" x="91.9155" y="148.033">1</text><text font-family="Arial" font-size="13" x="104.491" y="148.033">request insights(selectedCampusId, filters)</text></g><g id="msg2"><path d="M653.638 208.707 663.638 212.707 653.638 216.707 657.638 212.707Z" stroke="#181818" fill="#181818"/><line x1="390.981" y1="212.707" x2="659.638" y2="212.707" stroke="#181818"/><text font-family="Arial" font-weight="700" font-size="13" x="397.981" y="192.654">2</text><text font-family="Arial" font-size="13" x="410.557" y="177.344">viewConsentBasedInsights(</text><text font-family="Arial" font-size="13" x="410.557" y="192.654">AuthenticatedAdminContext,</text><text font-family="Arial" font-size="13" x="410.557" y="207.965">selectedCampusId, filters)</text></g><g id="msg3"><path d="M937.614 253.328 947.614 257.328 937.614 261.328 941.614 257.328Z" stroke="#181818" fill="#181818"/><line x1="665.638" y1="257.328" x2="943.614" y2="257.328" stroke="#181818"/><text font-family="Arial" font-weight="700" font-size="13" x="672.638" y="244.931">3</text><text font-family="Arial" font-size="13" x="685.214" y="237.275">authorize(AuthenticatedAdminContext,</text><text font-family="Arial" font-size="13" x="685.214" y="252.586">selectedCampusId)</text></g><path d="M10 272.328 72.1387 272.328 72.1387 279.639 62.1387 289.639 10 289.639 10 272.328" stroke="#000000" stroke-width="1.5" fill="#EEEEEE"/><rect x="10" y="272.328" width="1949.4" height="724.674" stroke="#000000" stroke-width="1.5" fill="none"/><text font-family="Arial" font-weight="700" font-size="13" x="25" y="285.897">alt</text><text font-family="Arial" font-weight="700" font-size="11" x="87.1387" y="284.963">[authorization fails]</text><g id="msg4"><path d="M676.638 306.949 666.638 310.949 676.638 314.949 672.638 310.949Z" stroke="#181818" fill="#181818"/><line x1="670.638" y1="310.949" x2="948.614" y2="310.949" stroke="#181818" stroke-dasharray="2 2"/><text font-family="Arial" font-weight="700" font-size="13" x="682.638" y="306.207">4</text><text font-family="Arial" font-size="13" x="695.214" y="306.207">not authorized</text></g><g id="msg5"><path d="M401.981 336.26 391.981 340.26 401.981 344.26 397.981 340.26Z" stroke="#181818" fill="#181818"/><line x1="395.981" y1="340.26" x2="664.638" y2="340.26" stroke="#181818" stroke-dasharray="2 2"/><text font-family="Arial" font-weight="700" font-size="13" x="407.981" y="335.518">5</text><text font-family="Arial" font-size="13" x="420.557" y="335.518">deny access</text></g><g id="msg6"><path d="M95.9155 365.57 85.9155 369.57 95.9155 373.57 91.9155 369.57Z" stroke="#181818" fill="#181818"/><line x1="89.9155" y1="369.57" x2="389.981" y2="369.57" stroke="#181818" stroke-dasharray="2 2"/><text font-family="Arial" font-weight="700" font-size="13" x="101.915" y="364.828">6</text><text font-family="Arial" font-size="13" x="114.491" y="364.828">show access denied</text></g><line x1="10" y1="378.57" x2="1959.4" y2="378.57" stroke="#000000" stroke-dasharray="2 2"/><text font-family="Arial" font-weight="700" font-size="11" x="15" y="389.205">[authorization succeeds]</text><g id="msg7"><path d="M676.638 409.836 666.638 413.836 676.638 417.836 672.638 413.836Z" stroke="#181818" fill="#181818"/><line x1="670.638" y1="413.836" x2="948.614" y2="413.836" stroke="#181818" stroke-dasharray="2 2"/><text font-family="Arial" font-weight="700" font-size="13" x="682.638" y="409.094">7</text><text font-family="Arial" font-size="13" x="695.214" y="409.094">authorized campus scope</text></g><g id="msg8"><path d="M1156.03 439.147 1166.03 443.147 1156.03 447.147 1160.03 443.147Z" stroke="#181818" fill="#181818"/><line x1="665.638" y1="443.147" x2="1162.03" y2="443.147" stroke="#181818"/><text font-family="Arial" font-weight="700" font-size="13" x="672.638" y="438.404">8</text><text font-family="Arial" font-size="13" x="685.214" y="438.404">check consent and campus scope(filters)</text></g><g id="msg9"><path d="M1496.17 483.768 1506.17 487.768 1496.17 491.768 1500.17 487.768Z" stroke="#181818" fill="#181818"/><line x1="1168.03" y1="487.768" x2="1502.17" y2="487.768" stroke="#181818"/><text font-family="Arial" font-weight="700" font-size="13" x="1175.03" y="475.37">9</text><text font-family="Arial" font-size="13" x="1187.61" y="467.715">read SelectedCampusID,</text><text font-family="Arial" font-size="13" x="1187.61" y="483.025">CampusInsightSharingConsent</text></g><g id="msg10"><path d="M1179.03 513.078 1169.03 517.078 1179.03 521.078 1175.03 517.078Z" stroke="#181818" fill="#181818"/><line x1="1173.03" y1="517.078" x2="1507.17" y2="517.078" stroke="#181818" stroke-dasharray="2 2"/><text font-family="Arial" font-weight="700" font-size="13" x="1185.03" y="512.336">10</text><text font-family="Arial" font-size="13" x="1206.18" y="512.336">consent/campus eligibility result</text></g><path d="M20 532.078 82.1387 532.078 82.1387 539.389 72.1387 549.389 20 549.389 20 532.078" stroke="#000000" stroke-width="1.5" fill="#EEEEEE"/><rect x="20" y="532.078" width="1929.4" height="457.924" stroke="#000000" stroke-width="1.5" fill="none"/><text font-family="Arial" font-weight="700" font-size="13" x="35" y="545.646">alt</text><text font-family="Arial" font-weight="700" font-size="11" x="97.1387" y="544.713">[consent false, revoked, or campus mismatch]</text><g id="msg11"><path d="M676.638 566.699 666.638 570.699 676.638 574.699 672.638 570.699Z" stroke="#181818" fill="#181818"/><line x1="670.638" y1="570.699" x2="1167.03" y2="570.699" stroke="#181818" stroke-dasharray="2 2"/><text font-family="Arial" font-weight="700" font-size="13" x="682.638" y="565.957">11</text><text font-family="Arial" font-size="13" x="703.79" y="565.957">identifiable insight denied</text></g><g id="msg12"><path d="M401.981 596.01 391.981 600.01 401.981 604.01 397.981 600.01Z" stroke="#181818" fill="#181818"/><line x1="395.981" y1="600.01" x2="664.638" y2="600.01" stroke="#181818" stroke-dasharray="2 2"/><text font-family="Arial" font-weight="700" font-size="13" x="407.981" y="595.268">12</text><text font-family="Arial" font-size="13" x="429.132" y="595.268">return access denied / limited result</text></g><g id="msg13"><path d="M95.9155 625.32 85.9155 629.32 95.9155 633.32 91.9155 629.32Z" stroke="#181818" fill="#181818"/><line x1="89.9155" y1="629.32" x2="389.981" y2="629.32" stroke="#181818" stroke-dasharray="2 2"/><text font-family="Arial" font-weight="700" font-size="13" x="101.915" y="624.578">13</text><text font-family="Arial" font-size="13" x="123.067" y="624.578">show consent-gated denial</text></g><line x1="20" y1="638.32" x2="1949.4" y2="638.32" stroke="#000000" stroke-dasharray="2 2"/><text font-family="Arial" font-weight="700" font-size="11" x="25" y="648.955">[consent granted and campus authorized]</text><g id="msg14"><path d="M676.638 669.586 666.638 673.586 676.638 677.586 672.638 673.586Z" stroke="#181818" fill="#181818"/><line x1="670.638" y1="673.586" x2="1167.03" y2="673.586" stroke="#181818" stroke-dasharray="2 2"/><text font-family="Arial" font-weight="700" font-size="13" x="682.638" y="668.844">14</text><text font-family="Arial" font-size="13" x="703.79" y="668.844">eligible account references</text></g><g id="msg15"><path d="M1339.47 698.896 1349.47 702.896 1339.47 706.896 1343.47 702.896Z" stroke="#181818" fill="#181818"/><line x1="665.638" y1="702.896" x2="1345.47" y2="702.896" stroke="#181818"/><text font-family="Arial" font-weight="700" font-size="13" x="672.638" y="698.154">15</text><text font-family="Arial" font-size="13" x="693.79" y="698.154">assembleLimitedInsights(eligibleRefs, filters)</text></g><g id="msg16"><path d="M1617.76 743.518 1627.76 747.518 1617.76 751.518 1621.76 747.518Z" stroke="#181818" fill="#181818"/><line x1="1351.47" y1="747.518" x2="1623.76" y2="747.518" stroke="#181818"/><text font-family="Arial" font-weight="700" font-size="13" x="1358.47" y="735.12">16</text><text font-family="Arial" font-size="13" x="1379.62" y="727.465">read allowed Student Profile fields</text><text font-family="Arial" font-size="13" x="1379.62" y="742.775">(minimal public profile/interests)</text></g><g id="msg17"><path d="M1362.47 772.828 1352.47 776.828 1362.47 780.828 1358.47 776.828Z" stroke="#181818" fill="#181818"/><line x1="1356.47" y1="776.828" x2="1628.76" y2="776.828" stroke="#181818" stroke-dasharray="2 2"/><text font-family="Arial" font-weight="700" font-size="13" x="1368.47" y="772.086">17</text><text font-family="Arial" font-size="13" x="1389.62" y="772.086">profile insight slice</text></g><g id="msg18"><path d="M1722.8 802.139 1732.8 806.139 1722.8 810.139 1726.8 806.139Z" stroke="#181818" fill="#181818"/><line x1="1351.47" y1="806.139" x2="1728.8" y2="806.139" stroke="#181818"/><text font-family="Arial" font-weight="700" font-size="13" x="1358.47" y="801.396">18</text><text font-family="Arial" font-size="13" x="1379.62" y="801.396">read allowed activity insight data</text></g><g id="msg19"><path d="M1362.47 831.449 1352.47 835.449 1362.47 839.449 1358.47 835.449Z" stroke="#181818" fill="#181818"/><line x1="1356.47" y1="835.449" x2="1733.8" y2="835.449" stroke="#181818" stroke-dasharray="2 2"/><text font-family="Arial" font-weight="700" font-size="13" x="1368.47" y="830.707">19</text><text font-family="Arial" font-size="13" x="1389.62" y="830.707">activity insight slice</text></g><g id="msg20"><path d="M1851.24 860.76 1861.24 864.76 1851.24 868.76 1855.24 864.76Z" stroke="#181818" fill="#181818"/><line x1="1351.47" y1="864.76" x2="1857.24" y2="864.76" stroke="#181818"/><text font-family="Arial" font-weight="700" font-size="13" x="1358.47" y="860.018">20</text><text font-family="Arial" font-size="13" x="1379.62" y="860.018">read allowed participation insight data</text></g><g id="msg21"><path d="M1362.47 890.07 1352.47 894.07 1362.47 898.07 1358.47 894.07Z" stroke="#181818" fill="#181818"/><line x1="1356.47" y1="894.07" x2="1862.24" y2="894.07" stroke="#181818" stroke-dasharray="2 2"/><text font-family="Arial" font-weight="700" font-size="13" x="1368.47" y="889.328">21</text><text font-family="Arial" font-size="13" x="1389.62" y="889.328">participation insight slice</text></g><g id="msg22"><path d="M676.638 919.381 666.638 923.381 676.638 927.381 672.638 923.381Z" stroke="#181818" fill="#181818"/><line x1="670.638" y1="923.381" x2="1350.47" y2="923.381" stroke="#181818" stroke-dasharray="2 2"/><text font-family="Arial" font-weight="700" font-size="13" x="682.638" y="918.639">22</text><text font-family="Arial" font-size="13" x="703.79" y="918.639">limited insight result</text></g><g id="msg23"><path d="M401.981 948.691 391.981 952.691 401.981 956.691 397.981 952.691Z" stroke="#181818" fill="#181818"/><line x1="395.981" y1="952.691" x2="664.638" y2="952.691" stroke="#181818" stroke-dasharray="2 2"/><text font-family="Arial" font-weight="700" font-size="13" x="407.981" y="947.949">23</text><text font-family="Arial" font-size="13" x="429.132" y="947.949">insight result</text></g><g id="msg24"><path d="M95.9155 978.002 85.9155 982.002 95.9155 986.002 91.9155 982.002Z" stroke="#181818" fill="#181818"/><line x1="89.9155" y1="982.002" x2="389.981" y2="982.002" stroke="#181818" stroke-dasharray="2 2"/><text font-family="Arial" font-weight="700" font-size="13" x="101.915" y="977.26">24</text><text font-family="Arial" font-size="13" x="123.067" y="977.26">display consent-based insights</text></g><path d="M588 1009 588 1064 1939 1064 1939 1019 1929 1009 588 1009" stroke="#181818" stroke-width="0.5" fill="#FEFFDD"/><path d="M1929 1009 1929 1019 1939 1019 1929 1009" stroke="#181818" stroke-width="0.5" fill="#FEFFDD"/><text font-family="Arial" font-size="13" x="1038.5" y="1026.57">Read-only flow over existing stores.</text><text font-family="Arial" font-size="13" x="1038.5" y="1041.88">CA does not own AP/H&amp;L data and performs no AP/H&amp;L writes.</text><text font-family="Arial" font-size="13" x="1038.5" y="1057.19">No DS-CA-003, Admin Account Store, or Campus Admin Store exists.</text></g></svg>